<?xml version="1.0" encoding="UTF-8"?>
<svg width="54px" height="44px" viewBox="0 0 54 44" version="1.1" xmlns="http://www.w3.org/2000/svg" xmlns:xlink="http://www.w3.org/1999/xlink">
    <!-- Generator: Sketch 47.1 (45422) - http://www.bohemiancoding.com/sketch -->
    <title>logo-pig</title>
    <desc>Created with Sketch.</desc>
    <defs></defs>
    <g id="Symbols" stroke="none" stroke-width="1" fill="none" fill-rule="evenodd">
        <g id="logo-pig" fill="#131720">
            <path d="M45.1718245,12.16666 C47.8279457,11.7573148 50.3188515,10.5586914 51.5478516,9.18434311 C52.8483887,7.7299974 53.973877,9.36549545 54.0134277,11.4057787 C54.0529785,13.4460619 53.4829102,16.2871263 49.875,18.2190111 C49.3975456,18.4746679 48.9589912,18.7035266 48.5593369,18.9055873 C48.7442192,19.4040757 48.9024836,19.8728323 49.0307617,20.2988451 C50.0080566,23.5444505 49.361084,24.5507982 53.7297363,24.4004076 C53.1771647,28.2895451 52.7426758,30.7945037 52.4262695,31.9152832 C46.6962891,34.8989258 40.640625,35.2836914 37.7546387,35.5390794 C37.5129395,36.4934251 37.6228027,40.7504883 38.0307617,44 C35.6901042,44.0437826 34.277832,44.0437826 33.7939453,44 C32.1785482,40.4964306 31.0541992,37.771013 30.4208984,35.8237474 L15.6960683,35.8237474 C14.958748,38.9886124 14.3682454,41.7140299 13.9245605,44 L9.85318708,44 C7.97563918,39.4117951 6.65356445,34.4690925 5.88696289,29.1718919 C4.73706055,21.2260912 5.01318359,18.36989 6.28857422,14.512224 C7.56396484,10.654558 13.4680176,3.14552475 24.3139648,3.11696029 C35.1599121,3.08839584 39.3981934,6.41945053 42.3669434,8.87306381 C43.3471333,9.68317148 44.2999639,10.850069 45.1718245,12.16666 Z M42.5673828,24.9174974 C43.3958099,24.9174974 44.0673828,24.2459245 44.0673828,23.4174974 C44.0673828,22.5890703 43.3958099,21.9174974 42.5673828,21.9174974 C41.7389557,21.9174974 41.0673828,22.5890703 41.0673828,23.4174974 C41.0673828,24.2459245 41.7389557,24.9174974 42.5673828,24.9174974 Z M16.9960938,37.2675781 L23.6404043,37.5351562 C24.0648678,41.4029948 24.317627,43.5579427 24.3986816,44 L19.0694355,44 L16.9960938,37.2675781 Z M39.3969727,36.8210619 L44.6404043,36.2441406 C45.0648678,40.8208056 45.317627,43.4060921 45.3986816,44 L42.0694355,44 L39.3969727,36.8210619 Z" id="Combined-Shape"></path>
            <path d="M7.77615742,5.01647118 C8.76435753,4.45777969 8.73707343,3.64619029 8.12872058,3.09770195 C7.72139387,2.73045792 6.69128804,3.07638966 6.50239859,4.24847616 C6.43662909,4.65658545 6.39092228,5.0483646 6.36695538,5.42484409 C6.85300798,5.40746616 7.32617283,5.27087569 7.77615742,5.01647118 Z M4.4054229,4.87142597 C5.06594921,5.26429131 5.72760197,5.44770301 6.36695538,5.42484409 C6.32105766,6.14581959 6.35488888,6.81068511 6.48022852,7.426678 C6.72242201,8.6169596 7.30628728,9.6247618 8.31681044,10.5023002 L9.0718514,11.1579778 L7.76049614,12.6680597 L7.00545518,12.0123821 C5.40692151,10.6242153 4.60532172,8.98723752 4.40039931,7.07837623 C4.32537738,6.37954368 4.33032729,5.64427097 4.4054229,4.87142597 C4.43532512,4.56368793 4.47634922,4.24999265 4.52787485,3.93026865 C4.97157455,1.1770476 7.89595253,0.194978421 9.4679591,1.61229286 C10.9974029,2.99123284 11.0799324,5.44614732 8.76046368,6.75748847 C8.02516423,7.17319936 7.2565676,7.39303558 6.48022852,7.426678 C5.78706116,7.4567162 5.08772145,7.33831865 4.40039931,7.07837623 C3.29067648,6.65868359 2.21228114,5.87001123 1.24177187,4.74136174 L0.589782528,3.98313361 L2.1062388,2.67915493 L2.75822813,3.43738307 C3.29726111,4.06424909 3.85094511,4.54163577 4.4054229,4.87142597 Z" id="Path-4" fill-rule="nonzero"></path>
        </g>
    </g>
</svg>